<?xml version="1.0" encoding="UTF-8"?>
<svg width="324px" height="41px" viewBox="0 0 324 41" version="1.1" xmlns="http://www.w3.org/2000/svg" xmlns:xlink="http://www.w3.org/1999/xlink">
    <!-- Generator: Sketch 51.2 (57519) - http://www.bohemiancoding.com/sketch -->
    <title>bubbles</title>
    <desc>Created with Sketch.</desc>
    <defs>
        <linearGradient x1="0%" y1="43.0595977%" x2="147.519392%" y2="50%" id="linearGradient-1">
            <stop stop-color="#FFFFFF" stop-opacity="0.614781476" offset="0%"></stop>
            <stop stop-color="#5AC5E1" stop-opacity="0" offset="100%"></stop>
        </linearGradient>
    </defs>
    <g id="Page-1" stroke="none" stroke-width="1" fill="none" fill-rule="evenodd">
        <g id="bubbles" transform="translate(-2.000000, -1.000000)">
            <g id="bubble" transform="translate(309.796930, 13.706384)">
                <ellipse id="Oval-2" stroke="#92DDF1" cx="8.57956048" cy="9.0113531" rx="6.97975115" ry="6.86342196"></ellipse>
                <path d="M6.43841343,12.0150201 C7.34984144,11.8495616 5.78089032,10.3766849 5.39193194,8.25626607 C5.29610283,7.73385066 5.27410223,6.60828255 5.36857472,6.08681411 C5.56158348,5.02144614 5.82376342,4.32527588 6.47392323,3.29645736 C7.41353369,1.80960961 9.68566405,0.882808785 8.44700584,0.882808785 C7.49835483,0.882808785 6.21839605,1.36465799 5.27416566,2.31488819 C4.13241909,3.46388963 3.52295724,5.22061039 3.40863345,6.24627379 C3.38126552,6.49180696 3.35479024,6.78427156 3.34442208,7.10482783 C3.32344361,7.75342655 3.37294623,8.50460299 3.65392991,9.12547027 C4.37782896,10.7250124 5.72707904,12.1441541 6.43841343,12.0150201 Z" id="Oval-3" fill="url(#linearGradient-1)" transform="translate(6.074027, 6.453004) rotate(37.000000) translate(-6.074027, -6.453004) "></path>
            </g>
            <g id="bubble" transform="translate(232.241272, 0.173695)">
                <ellipse id="Oval-2" stroke="#92DDF1" cx="8.57956048" cy="9.0113531" rx="6.97975115" ry="6.86342196"></ellipse>
                <path d="M6.43841343,12.0150201 C7.34984144,11.8495616 5.78089032,10.3766849 5.39193194,8.25626607 C5.29610283,7.73385066 5.27410223,6.60828255 5.36857472,6.08681411 C5.56158348,5.02144614 5.82376342,4.32527588 6.47392323,3.29645736 C7.41353369,1.80960961 9.68566405,0.882808785 8.44700584,0.882808785 C7.49835483,0.882808785 6.21839605,1.36465799 5.27416566,2.31488819 C4.13241909,3.46388963 3.52295724,5.22061039 3.40863345,6.24627379 C3.38126552,6.49180696 3.35479024,6.78427156 3.34442208,7.10482783 C3.32344361,7.75342655 3.37294623,8.50460299 3.65392991,9.12547027 C4.37782896,10.7250124 5.72707904,12.1441541 6.43841343,12.0150201 Z" id="Oval-3" fill="url(#linearGradient-1)" transform="translate(6.074027, 6.453004) rotate(37.000000) translate(-6.074027, -6.453004) "></path>
            </g>
            <g id="bubble" transform="translate(137.788862, 3.113548)">
                <ellipse id="Oval-2" stroke="#92DDF1" cx="10.3062645" cy="10.8249588" rx="8.38448097" ry="8.24473962"></ellipse>
                <path d="M7.73419477,14.4331374 C8.82905484,14.234379 6.94433997,12.4650744 6.47710066,9.91790456 C6.36198518,9.29034893 6.33555679,7.9382514 6.44904262,7.31183333 C6.6808959,6.03205167 6.99584161,5.19577168 7.7768512,3.95989534 C8.90556566,2.17380778 11.6349801,1.060481 10.1470322,1.060481 C9.00745772,1.060481 7.46989717,1.63930614 6.33563299,2.78077764 C4.96410094,4.16102467 4.2319801,6.2712993 4.09464775,7.50338552 C4.06177181,7.79833417 4.02996817,8.14965957 4.01751333,8.53473032 C3.99231278,9.31386463 4.05177819,10.2162212 4.38931204,10.9620429 C5.25890147,12.8835055 6.87969874,14.5882606 7.73419477,14.4331374 Z" id="Oval-3" fill="url(#linearGradient-1)" transform="translate(7.296472, 7.751722) rotate(37.000000) translate(-7.296472, -7.751722) "></path>
            </g>
            <g id="bubble" transform="translate(0.737719, 9.836252)">
                <ellipse id="Oval-2" stroke="#92DDF1" cx="11.4558573" cy="12.0324083" rx="9.31971201" ry="9.16438348"></ellipse>
                <path d="M8.59689087,16.0430543 C9.81387503,15.8221259 7.71893322,13.8554675 7.19957657,11.0241784 C7.07162076,10.3266233 7.04224446,8.82370861 7.16838885,8.12741792 C7.42610377,6.70488544 7.77617951,5.77532418 8.64430533,4.40159436 C9.89892011,2.41628105 12.9327819,1.17877034 11.2788637,1.17877034 C10.0121775,1.17877034 8.30311269,1.82215944 7.04232917,3.09095422 C5.51781217,4.62515828 4.7040283,6.9708195 4.55137747,8.34033644 C4.51483444,8.66818458 4.47948333,9.05869791 4.46563924,9.48672063 C4.43762774,10.352762 4.50372611,11.3557703 4.87890954,12.1847833 C5.84549567,14.3205717 7.6470817,16.2154805 8.59689087,16.0430543 Z" id="Oval-3" fill="url(#linearGradient-1)" transform="translate(8.110344, 8.616373) rotate(37.000000) translate(-8.110344, -8.616373) "></path>
            </g>
            <g id="bubble" transform="translate(68.713867, 2.000000)">
                <ellipse id="Oval-2" stroke="#92DDF1" cx="10.7698613" cy="11.3118875" rx="8.76163202" ry="8.61560482"></ellipse>
                <path d="M8.08209463,15.0823693 C9.22620374,14.8746704 7.25671055,13.0257789 6.76845385,10.3640321 C6.64816025,9.70824778 6.62054305,8.29533014 6.73913371,7.6407345 C6.98141622,6.30338566 7.31052884,5.42948808 8.12666983,4.13801951 C9.30615617,2.27159009 12.1583453,1.1081836 10.6034664,1.1081836 C9.41263154,1.1081836 7.80590838,1.71304548 6.62062268,2.90586269 C5.18739632,4.34819604 4.42234319,6.55339513 4.27883335,7.84090311 C4.24447859,8.14911915 4.21124435,8.51624788 4.19822927,8.91863989 C4.17189515,9.73282126 4.23403544,10.6757677 4.58675225,11.455138 C5.49545758,13.4630319 7.18916163,15.2444703 8.08209463,15.0823693 Z" id="Oval-3" fill="url(#linearGradient-1)" transform="translate(7.624683, 8.100411) rotate(37.000000) translate(-7.624683, -8.100411) "></path>
            </g>
            <g id="bubble" transform="translate(97.445167, 17.649400)">
                <ellipse id="Oval-2" stroke="#92DDF1" cx="9.42487187" cy="9.89920737" rx="7.66743942" ry="7.53964877"></ellipse>
                <path d="M7.07276576,13.1988142 C8.0739933,13.0170537 6.35045941,11.3990601 5.92317844,9.06972449 C5.81790765,8.49583748 5.79373942,7.25937145 5.89751993,6.6865247 C6.1095451,5.51619008 6.39755663,4.75142883 7.1117742,3.62124474 C8.14396091,1.98790355 10.6399556,0.96978857 9.27925713,0.96978857 C8.23713915,0.96978857 6.83107091,1.49911254 5.7938091,2.5429653 C4.53957059,3.80517347 3.87006079,5.73497724 3.74447311,6.86169534 C3.71440873,7.13141995 3.68532494,7.45269997 3.67393524,7.80483943 C3.65088984,8.51734212 3.70526976,9.34252911 4.0139377,10.0245681 C4.80915976,11.781707 6.29134631,13.3406713 7.07276576,13.1988142 Z" id="Oval-3" fill="url(#linearGradient-1)" transform="translate(6.672477, 7.088794) rotate(37.000000) translate(-6.672477, -7.088794) "></path>
            </g>
            <g id="bubble" transform="translate(40.548137, 16.116681)">
                <ellipse id="Oval-2" stroke="#92DDF1" cx="10.7988485" cy="11.3423336" rx="8.78521406" ry="8.63879382"></ellipse>
                <path d="M8.10384768,15.1229637 C9.25103617,14.9147058 7.27624207,13.0608379 6.78667123,10.391927 C6.66605385,9.73437764 6.63836232,8.31765712 6.75727216,7.66129963 C7.00020678,6.32035129 7.33020521,5.44410161 8.14854285,4.14915703 C9.3312038,2.2777041 12.1910696,1.11116628 10.6320058,1.11116628 C9.43796575,1.11116628 7.82691807,1.71765616 6.63844217,2.91368386 C5.20135826,4.35989926 4.43424598,6.57103367 4.29034988,7.86200699 C4.25590265,8.1710526 4.22257897,8.53916946 4.20952885,8.94264452 C4.18312385,9.75901726 4.24543139,10.7045017 4.59909755,11.4859696 C5.51024867,13.4992678 7.20851134,15.285501 8.10384768,15.1229637 Z" id="Oval-3" fill="url(#linearGradient-1)" transform="translate(7.645205, 8.122213) rotate(37.000000) translate(-7.645205, -8.122213) "></path>
            </g>
            <g id="bubble" transform="translate(292.877343, 26.649400)">
                <ellipse id="Oval-2" stroke="#92DDF1" cx="7.43898673" cy="7.81337648" rx="6.05185735" ry="5.95099306"></ellipse>
                <path d="M5.58248551,10.4177335 C6.37274754,10.2742712 5.01237406,8.99719999 4.67512412,7.15867134 C4.59203461,6.70570626 4.57295879,5.72977209 4.65487203,5.27762809 C4.82222204,4.353891 5.04954757,3.75027019 5.6132746,2.85822364 C6.42797249,1.56903864 8.39804399,0.765447467 7.32405401,0.765447467 C6.50151744,0.765447467 5.39171742,1.18323925 4.57301379,2.00714507 C3.58305193,3.00339732 3.05461244,4.5265782 2.95548695,5.41588907 C2.93175733,5.62878086 2.9088017,5.88236498 2.89981188,6.16030624 C2.88162231,6.72267972 2.92454401,7.37399415 3.16817349,7.91232283 C3.79583681,9.29922053 4.96571649,10.5297003 5.58248551,10.4177335 Z" id="Oval-3" fill="url(#linearGradient-1)" transform="translate(5.266541, 5.595137) rotate(37.000000) translate(-5.266541, -5.595137) "></path>
            </g>
            <g id="bubble" transform="translate(196.132556, 11.605273)">
                <ellipse id="Oval-2" stroke="#92DDF1" cx="15.0754125" cy="15.8341287" rx="12.2643378" ry="12.0599321"></ellipse>
                <path d="M11.3131364,21.1119654 C12.9146349,20.8212331 10.1577821,18.2331957 9.47433126,14.5073418 C9.30594695,13.5893894 9.26728901,11.6116187 9.43328957,10.6953303 C9.77243125,8.82333913 10.2331158,7.60007673 11.3755318,5.79230773 C13.0265506,3.17972132 17.0189814,1.55121076 14.8424966,1.55121076 C13.1755924,1.55121076 10.926537,2.39788298 9.26740047,4.06756201 C7.26120207,6.08650817 6.1902977,9.17329684 5.98941582,10.9755219 C5.94132678,11.4069559 5.89480624,11.9208545 5.87658801,12.4841139 C5.8397261,13.6237869 5.92670869,14.9437023 6.42043385,16.0346475 C7.69241937,18.8452528 10.0632286,21.3388707 11.3131364,21.1119654 Z" id="Oval-3" fill="url(#linearGradient-1)" transform="translate(10.672861, 11.338775) rotate(37.000000) translate(-10.672861, -11.338775) "></path>
            </g>
            <g id="bubble" transform="translate(156.788862, 23.858563)">
                <ellipse id="Oval-2" stroke="#92DDF1" cx="9.0403145" cy="9.49529597" rx="7.35458951" ry="7.23201302"></ellipse>
                <path d="M6.78417996,12.6602709 C7.74455502,12.4859267 6.09134544,10.9339512 5.68149856,8.69965799 C5.58052307,8.14918694 5.55734096,6.96317168 5.65688698,6.41369846 C5.86026101,5.2911163 6.13652098,4.55755914 6.82159676,3.47348927 C7.81166778,1.90679232 10.2058199,0.930218871 8.90064119,0.930218871 C7.90104412,0.930218871 6.55234684,1.43794515 5.5574078,2.43920622 C4.35434523,3.64991327 3.71215303,5.50097641 3.59168963,6.58172172 C3.56285194,6.84044092 3.53495484,7.14861195 3.52402987,7.48638327 C3.50192478,8.16981414 3.55408587,8.96133152 3.85015941,9.61554166 C4.61293451,11.3009851 6.03464429,12.7963399 6.78417996,12.6602709 Z" id="Oval-3" fill="url(#linearGradient-1)" transform="translate(6.400224, 6.799554) rotate(37.000000) translate(-6.400224, -6.799554) "></path>
            </g>
            <g id="bubble" transform="translate(260.241272, 10.677048)">
                <ellipse id="Oval-2" stroke="#92DDF1" cx="10.7736674" cy="11.3158852" rx="8.7647284" ry="8.61864959"></ellipse>
                <path d="M8.08495085,15.0876995 C9.22946429,14.8799272 7.25927508,13.0303822 6.77084584,10.3676948 C6.65050972,9.71167869 6.62288276,8.29826172 6.74151533,7.64343475 C6.98388346,6.30561328 7.31311239,5.43140687 8.1295418,4.13948189 C9.30944498,2.27239287 12.162642,1.10857523 10.6072137,1.10857523 C9.41595798,1.10857523 7.808667,1.71365087 6.62296242,2.90688963 C5.18922955,4.3497327 4.42390606,6.55571111 4.2803455,7.8436741 C4.24597859,8.15199906 4.21273261,8.51925754 4.19971293,8.92179175 C4.1733695,9.73626086 4.23553175,10.6795405 4.58837322,11.4591863 C5.49739969,13.4677897 7.19170229,15.2498577 8.08495085,15.0876995 Z" id="Oval-3" fill="url(#linearGradient-1)" transform="translate(7.627377, 8.103273) rotate(37.000000) translate(-7.627377, -8.103273) "></path>
            </g>
        </g>
    </g>
</svg>